<svg width="22" height="22" viewBox="0 0 22 22" fill="none" xmlns="http://www.w3.org/2000/svg">
<g clip-path="url(#clip0_866_3687)">
<path d="M19.976 17.1449C19.6433 17.9135 19.2495 18.6211 18.7932 19.2715C18.1712 20.1583 17.662 20.7721 17.2695 21.113C16.6612 21.6724 16.0093 21.959 15.3113 21.9753C14.8102 21.9753 14.2059 21.8327 13.5025 21.5434C12.7968 21.2555 12.1482 21.113 11.5552 21.113C10.9332 21.113 10.2662 21.2555 9.55268 21.5434C8.83811 21.8327 8.26246 21.9834 7.82234 21.9984C7.15299 22.0269 6.48582 21.7322 5.81986 21.113C5.39482 20.7422 4.86317 20.1067 4.22627 19.2063C3.54294 18.2449 2.98114 17.13 2.54102 15.8589C2.06966 14.486 1.83337 13.1565 1.83337 11.8694C1.83337 10.3951 2.15196 9.12345 2.79007 8.05784C3.29157 7.20191 3.95875 6.52672 4.79377 6.03105C5.6288 5.53539 6.53104 5.2828 7.50267 5.26664C8.03432 5.26664 8.73151 5.4311 9.5979 5.7543C10.4619 6.07858 11.0166 6.24303 11.2598 6.24303C11.4416 6.24303 12.0579 6.05074 13.1026 5.66739C14.0905 5.31186 14.9243 5.16466 15.6074 5.22265C17.4583 5.37202 18.8489 6.10167 19.7737 7.4162C18.1183 8.4192 17.2994 9.82404 17.3157 11.6262C17.3307 13.03 17.8399 14.1981 18.8407 15.1256C19.2943 15.5561 19.8008 15.8888 20.3644 16.1251C20.2422 16.4795 20.1132 16.819 19.976 17.1449V17.1449ZM15.731 0.44037C15.731 1.54062 15.329 2.56792 14.5278 3.51878C13.5609 4.64917 12.3914 5.30236 11.1232 5.19929C11.107 5.06729 11.0977 4.92837 11.0977 4.78239C11.0977 3.72615 11.5575 2.59576 12.374 1.67152C12.7817 1.20356 13.3002 0.814453 13.9289 0.504058C14.5563 0.198295 15.1497 0.0292007 15.7079 0.000244141C15.7242 0.147331 15.731 0.294426 15.731 0.440355V0.44037Z" fill="white"/>
</g>
<defs>
<clipPath id="clip0_866_3687">
<rect width="22" height="22" fill="white"/>
</clipPath>
</defs>
</svg>
