<svg width="52" height="52" viewBox="0 0 52 52" fill="none" xmlns="http://www.w3.org/2000/svg">
<path d="M36.8335 4.33337H15.1668C9.18683 4.33337 4.3335 9.16504 4.3335 15.1234V28.08V30.2467C4.3335 36.205 9.18683 41.0367 15.1668 41.0367H18.4168C19.0018 41.0367 19.7818 41.4267 20.1502 41.9034L23.4002 46.215C24.8302 48.1217 27.1702 48.1217 28.6002 46.215L31.8502 41.9034C32.2618 41.3617 32.9118 41.0367 33.5835 41.0367H36.8335C42.8135 41.0367 47.6668 36.205 47.6668 30.2467V15.1234C47.6668 9.16504 42.8135 4.33337 36.8335 4.33337ZM17.3335 26C16.1202 26 15.1668 25.025 15.1668 23.8334C15.1668 22.6417 16.1418 21.6667 17.3335 21.6667C18.5252 21.6667 19.5002 22.6417 19.5002 23.8334C19.5002 25.025 18.5468 26 17.3335 26ZM26.0002 26C24.7868 26 23.8335 25.025 23.8335 23.8334C23.8335 22.6417 24.8085 21.6667 26.0002 21.6667C27.1918 21.6667 28.1668 22.6417 28.1668 23.8334C28.1668 25.025 27.2135 26 26.0002 26ZM34.6668 26C33.4535 26 32.5002 25.025 32.5002 23.8334C32.5002 22.6417 33.4752 21.6667 34.6668 21.6667C35.8585 21.6667 36.8335 22.6417 36.8335 23.8334C36.8335 25.025 35.8802 26 34.6668 26Z" fill="#394358"/>
</svg>
