<svg width="21" height="20" viewBox="0 0 21 20" fill="none" xmlns="http://www.w3.org/2000/svg">
<path d="M4.20887 11.5902L10.0027 17.0329C10.1479 17.1693 10.2204 17.2374 10.2994 17.272C10.4272 17.328 10.5727 17.328 10.7006 17.272C10.7795 17.2374 10.8521 17.1693 10.9972 17.0329L16.7911 11.5902C18.4212 10.0589 18.6192 7.53887 17.2482 5.77176L16.9904 5.43949C15.3502 3.32552 12.058 3.68005 10.9055 6.09475C10.7427 6.43584 10.2572 6.43584 10.0944 6.09475C8.94195 3.68005 5.64975 3.32553 4.0096 5.43949L3.7518 5.77177C2.38077 7.53888 2.57873 10.0589 4.20887 11.5902Z" stroke="#D1D3D8" stroke-width="1.3"/>
</svg>
