<svg width="18" height="15" viewBox="0 0 18 15" fill="none" xmlns="http://www.w3.org/2000/svg">
<path d="M2.70889 8.59017L8.50274 14.0329C8.64788 14.1692 8.72046 14.2374 8.79938 14.272C8.92726 14.328 9.07274 14.328 9.20062 14.272C9.27954 14.2374 9.35211 14.1692 9.49726 14.0329L15.2911 8.59017C16.9212 7.05882 17.1192 4.53883 15.7482 2.77172L15.4904 2.43945C13.8502 0.325483 10.558 0.680011 9.40555 3.09471C9.24276 3.4358 8.75724 3.4358 8.59444 3.09471C7.44197 0.680011 4.14977 0.325484 2.50962 2.43945L2.25182 2.77172C0.880788 4.53883 1.07875 7.05882 2.70889 8.59017Z" fill="#D9D9D9" stroke="#D1D3D8" stroke-width="1.3"/>
</svg>
