<svg width="37" height="36" viewBox="0 0 37 36" fill="none" xmlns="http://www.w3.org/2000/svg">
<circle cx="18.5" cy="18" r="18" fill="#212A3C"/>
<g clip-path="url(#clip0_66_2321)">
<path d="M25.5723 25.0717C29.4777 21.1663 29.4777 14.8344 25.5723 10.929C21.6669 7.02359 15.3349 7.02359 11.4295 10.929C7.52411 14.8344 7.52411 21.1663 11.4295 25.0717C15.3349 28.9771 21.6669 28.9771 25.5723 25.0717Z" fill="url(#paint0_radial_66_2321)"/>
<path d="M21.0841 16.0493C23.5688 16.0493 24.1135 16.5599 24.4937 16.8344C24.7903 17.0475 25.2464 17.9246 25.2898 18.35C25.335 18.7864 25.0981 19.5348 24.781 20.0292C24.6199 20.2807 24.4144 20.4861 24.1544 20.6336C23.8356 20.8151 23.4742 20.7307 23.1469 20.8918C22.7045 21.1092 22.8835 21.613 22.5119 21.8491C22.159 22.0733 21.8061 21.8695 21.4932 21.6837C21.1241 21.4646 20.6212 20.972 20.2197 20.6003C17.5969 18.1786 19.2395 16.0485 21.0841 16.0485V16.0493Z" fill="url(#paint1_linear_66_2321)"/>
<path d="M11.4451 12.5339C11.3078 12.6319 11.197 12.7675 11.0956 12.9047C10.7853 13.3241 9.94738 14.3904 10.3625 14.93C11.2626 16.1004 13.282 14.0768 13.0348 12.9814C12.9257 12.4981 11.9642 12.2628 11.555 12.4674C11.5167 12.487 11.48 12.5092 11.4451 12.5339Z" fill="url(#paint2_linear_66_2321)"/>
<path d="M22.7386 22.2914C22.4147 22.8983 22.3414 23.5546 23.0821 23.5061C23.6626 23.4677 24.3735 23.1924 24.7758 22.7645C24.8364 22.7005 24.8935 22.6281 24.9097 22.542C24.9301 22.432 24.8798 22.3221 24.8304 22.2215C24.7196 21.9939 24.6062 21.7629 24.434 21.5779C23.7674 20.861 23.0668 21.6751 22.7386 22.2914Z" fill="url(#paint3_linear_66_2321)"/>
<path d="M14.4106 21.9479C13.091 21.3316 12.9495 23.0143 14.4106 23.6851C15.8716 24.3568 16.1878 22.7773 14.4106 21.9479Z" fill="url(#paint4_linear_66_2321)"/>
</g>
<defs>
<radialGradient id="paint0_radial_66_2321" cx="0" cy="0" r="1" gradientUnits="userSpaceOnUse" gradientTransform="translate(20.1779 9.38884) scale(20.5668)">
<stop offset="0.11" stop-color="#F7FCFF"/>
<stop offset="0.42" stop-color="#CACCDE"/>
<stop offset="0.8" stop-color="#9897BA"/>
<stop offset="1" stop-color="#D3E2F4"/>
</radialGradient>
<linearGradient id="paint1_linear_66_2321" x1="22.3686" y1="23.5104" x2="21.4617" y2="7.41529" gradientUnits="userSpaceOnUse">
<stop offset="0.09" stop-color="#9897BA"/>
<stop offset="1" stop-color="#D3E2F4"/>
</linearGradient>
<linearGradient id="paint2_linear_66_2321" x1="14.2106" y1="9.19265" x2="6.33639" y2="23.6844" gradientUnits="userSpaceOnUse">
<stop offset="0.8" stop-color="#9897BA"/>
<stop offset="1" stop-color="#D3E2F4"/>
</linearGradient>
<linearGradient id="paint3_linear_66_2321" x1="25.7177" y1="16.9485" x2="21.4745" y2="29.1064" gradientUnits="userSpaceOnUse">
<stop offset="0.8" stop-color="#9897BA"/>
<stop offset="1" stop-color="#D3E2F4"/>
</linearGradient>
<linearGradient id="paint4_linear_66_2321" x1="15.8094" y1="19.0736" x2="12.9385" y2="27.3019" gradientUnits="userSpaceOnUse">
<stop offset="0.8" stop-color="#9897BA"/>
<stop offset="1" stop-color="#D3E2F4"/>
</linearGradient>
<clipPath id="clip0_66_2321">
<rect width="20" height="20" fill="white" transform="translate(8.5 8)"/>
</clipPath>
</defs>
</svg>
