<svg width="22" height="21" viewBox="0 0 22 21" fill="none" xmlns="http://www.w3.org/2000/svg">
<g clip-path="url(#clip0_866_3688)">
<path d="M10.9999 8.59082V12.6572H16.9199C16.6599 13.9649 15.8798 15.0722 14.7098 15.8168L18.2798 18.4609C20.3598 16.6282 21.5598 13.9364 21.5598 10.7387C21.5598 9.99412 21.4898 9.27814 21.3598 8.59093L10.9999 8.59082Z" fill="white"/>
<path d="M4.83514 12.4985L4.02998 13.0869L1.17993 15.2059C2.98993 18.6327 6.69965 21 10.9996 21C13.9695 21 16.4595 20.0646 18.2796 18.461L14.7096 15.8168C13.7296 16.4468 12.4796 16.8287 10.9996 16.8287C8.13963 16.8287 5.7097 14.9864 4.83964 12.5046L4.83514 12.4985Z" fill="white"/>
<path d="M1.17991 5.79407C0.429955 7.20674 0 8.80085 0 10.4999C0 12.199 0.429955 13.7931 1.17991 15.2058C1.17991 15.2152 4.83998 12.4948 4.83998 12.4948C4.61998 11.8649 4.48994 11.1967 4.48994 10.4998C4.48994 9.80289 4.61998 9.13475 4.83998 8.50476L1.17991 5.79407Z" fill="white"/>
<path d="M10.9998 4.18091C12.6199 4.18091 14.0598 4.71544 15.2098 5.74636L18.3598 2.73958C16.4498 1.04052 13.9699 0 10.9998 0C6.69988 0 2.98993 2.35772 1.17993 5.7941L4.83988 8.50501C5.70983 6.02317 8.13986 4.18091 10.9998 4.18091Z" fill="white"/>
</g>
<defs>
<clipPath id="clip0_866_3688">
<rect width="22" height="21" fill="white"/>
</clipPath>
</defs>
</svg>
