<svg width="24" height="23" viewBox="0 0 24 23" fill="none" xmlns="http://www.w3.org/2000/svg">
<path d="M12 0C14.1696 0 16.1763 0.420565 18.0201 1.2617C19.8638 2.10283 21.3215 3.2466 22.3928 4.69299C23.4643 6.13933 24 7.71701 24 9.42599C24 11.1349 23.4643 12.7148 22.3928 14.1657C21.3215 15.6165 19.8661 16.7625 18.0268 17.6036C16.1875 18.4447 14.1786 18.8653 12 18.8653C11.3125 18.8653 10.6027 18.8164 9.87053 18.7185C6.69194 20.917 5.00002 22.0296 4.79466 22.0563C4.69643 22.0919 4.60266 22.0874 4.51339 22.0429C4.47766 22.0162 4.45089 21.9806 4.43302 21.9361C4.41516 21.8916 4.40625 21.8516 4.40625 21.8159V21.7626C4.45984 21.4154 4.86606 19.969 5.62501 17.4234C3.90179 16.5689 2.53348 15.4363 1.52009 14.0255C0.506697 12.6147 0 11.0816 0 9.42599C0 7.71701 0.535715 6.13933 1.60714 4.69299C2.67857 3.2466 4.13616 2.10283 5.97991 1.2617C7.82365 0.420565 9.83035 0 12 0Z" fill="white"/>
</svg>
