<svg width="37" height="36" viewBox="0 0 37 36" fill="none" xmlns="http://www.w3.org/2000/svg">
<circle cx="18.5" cy="18" r="18" fill="#212A3C"/>
<g clip-path="url(#clip0_66_778)">
<path d="M18.5 29C13.529 29 9.5 24.2993 9.5 18.5004C9.5 12.7016 13.529 8 18.5 8C17.9899 8 17.2465 12.1592 17.2465 18.5004C17.2465 25.4602 17.9899 29 18.5 29Z" fill="url(#paint0_radial_66_778)"/>
<path d="M12.1504 12.7615C12.0269 12.8644 11.9272 13.0067 11.8359 13.1508C11.5567 13.5912 10.8026 14.7109 11.1762 15.2774C11.9863 16.5063 13.8036 14.3815 13.5812 13.2314C13.483 12.7239 12.6176 12.4769 12.2494 12.6917C12.2149 12.7123 12.1819 12.7356 12.1504 12.7615Z" fill="url(#paint1_linear_66_778)"/>
<path d="M14.8193 22.6454C13.6318 21.9983 13.5044 23.765 14.8193 24.4694C16.1342 25.1747 16.4188 23.5162 14.8193 22.6454Z" fill="url(#paint2_linear_66_778)"/>
</g>
<defs>
<radialGradient id="paint0_radial_66_778" cx="0" cy="0" r="1" gradientUnits="userSpaceOnUse" gradientTransform="translate(16.5323 13.6879) scale(13.7018 15.9861)">
<stop offset="0.11" stop-color="#F7FCFF"/>
<stop offset="0.42" stop-color="#CACCDE"/>
<stop offset="0.8" stop-color="#9897BA"/>
<stop offset="1" stop-color="#D3E2F4"/>
</radialGradient>
<linearGradient id="paint1_linear_66_778" x1="14.6411" y1="9.25032" x2="5.72872" y2="23.3091" gradientUnits="userSpaceOnUse">
<stop offset="0.8" stop-color="#9897BA"/>
<stop offset="1" stop-color="#D3E2F4"/>
</linearGradient>
<linearGradient id="paint2_linear_66_778" x1="16.0789" y1="19.6273" x2="12.6937" y2="27.9409" gradientUnits="userSpaceOnUse">
<stop offset="0.8" stop-color="#9897BA"/>
<stop offset="1" stop-color="#D3E2F4"/>
</linearGradient>
<clipPath id="clip0_66_778">
<rect width="9" height="21" fill="white" transform="translate(9.5 8)"/>
</clipPath>
</defs>
</svg>
