<svg width="30" height="30" viewBox="0 0 30 30" fill="none" xmlns="http://www.w3.org/2000/svg">
<path d="M20.4596 5.45962C20.7135 5.20578 20.7135 4.79422 20.4596 4.54038C20.2058 4.28654 19.7942 4.28654 19.5404 4.54038L20.4596 5.45962ZM10 15L9.54038 14.5404C9.28654 14.7942 9.28654 15.2058 9.54038 15.4596L10 15ZM19.5404 25.4596C19.7942 25.7135 20.2058 25.7135 20.4596 25.4596C20.7135 25.2058 20.7135 24.7942 20.4596 24.5404L19.5404 25.4596ZM19.5404 4.54038L9.54038 14.5404L10.4596 15.4596L20.4596 5.45962L19.5404 4.54038ZM9.54038 15.4596L19.5404 25.4596L20.4596 24.5404L10.4596 14.5404L9.54038 15.4596Z" fill="white"/>
</svg>
