<svg width="67" height="68" viewBox="0 0 67 68" fill="none" xmlns="http://www.w3.org/2000/svg">
<circle cx="33.4708" cy="33.543" r="32.9708" fill="#21202F" stroke="white"/>
<g clip-path="url(#clip0_2795_14200)">
<path d="M49.5578 49.6068C58.1497 41.0149 58.1497 27.0847 49.5578 18.4928C40.9659 9.90089 27.0356 9.90089 18.4437 18.4928C9.85183 27.0847 9.85183 41.0149 18.4437 49.6068C27.0356 58.1987 40.9659 58.1987 49.5578 49.6068Z" fill="url(#paint0_radial_2795_14200)"/>
<path d="M39.683 29.7568C45.1495 29.7568 46.3478 30.8801 47.1842 31.4839C47.8368 31.9527 48.8401 33.8824 48.9357 34.8182C49.0351 35.7783 48.5138 37.4248 47.8162 38.5125C47.4617 39.0657 47.0098 39.5177 46.4378 39.8421C45.7365 40.2415 44.9413 40.0559 44.2212 40.4103C43.248 40.8885 43.6418 41.9968 42.8241 42.5163C42.0478 43.0095 41.2714 42.5613 40.5832 42.1524C39.7712 41.6705 38.6647 40.5866 37.7815 39.769C32.0112 34.4412 35.6249 29.7549 39.683 29.7549V29.7568Z" fill="url(#paint1_linear_2795_14200)"/>
<path d="M18.4782 22.0239C18.1763 22.2395 17.9325 22.5377 17.7093 22.8396C17.0267 23.7623 15.1833 26.1083 16.0966 27.2953C18.0769 29.8701 22.5194 25.4182 21.9756 23.0084C21.7356 21.9451 19.6202 21.4275 18.7201 21.8776C18.6357 21.9207 18.5551 21.9695 18.4782 22.0239Z" fill="url(#paint2_linear_2795_14200)"/>
<path d="M43.3235 43.4905C42.6109 44.8257 42.4497 46.2696 44.0793 46.1627C45.3564 46.0784 46.9204 45.4726 47.8055 44.5312C47.9386 44.3906 48.0643 44.2312 48.0999 44.0418C48.1449 43.7999 48.0343 43.558 47.9255 43.3367C47.6817 42.836 47.4323 42.3278 47.0535 41.9208C45.587 40.3437 44.0455 42.1346 43.3235 43.4905Z" fill="url(#paint3_linear_2795_14200)"/>
<path d="M25.0025 42.7347C22.0995 41.3789 21.7882 45.0807 25.0025 46.5566C28.2167 48.0343 28.9125 44.5594 25.0025 42.7347Z" fill="url(#paint4_linear_2795_14200)"/>
</g>
<defs>
<radialGradient id="paint0_radial_2795_14200" cx="0" cy="0" r="1" gradientUnits="userSpaceOnUse" gradientTransform="translate(37.6902 15.1045) scale(45.2471)">
<stop offset="0.11" stop-color="#F7FCFF"/>
<stop offset="0.42" stop-color="#CACCDE"/>
<stop offset="0.8" stop-color="#9897BA"/>
<stop offset="1" stop-color="#D3E2F4"/>
</radialGradient>
<linearGradient id="paint1_linear_2795_14200" x1="42.5091" y1="46.1712" x2="40.5138" y2="10.7619" gradientUnits="userSpaceOnUse">
<stop offset="0.09" stop-color="#9897BA"/>
<stop offset="1" stop-color="#D3E2F4"/>
</linearGradient>
<linearGradient id="paint2_linear_2795_14200" x1="24.5623" y1="14.6731" x2="7.23913" y2="46.5549" gradientUnits="userSpaceOnUse">
<stop offset="0.8" stop-color="#9897BA"/>
<stop offset="1" stop-color="#D3E2F4"/>
</linearGradient>
<linearGradient id="paint3_linear_2795_14200" x1="49.8777" y1="31.7361" x2="40.5425" y2="58.4834" gradientUnits="userSpaceOnUse">
<stop offset="0.8" stop-color="#9897BA"/>
<stop offset="1" stop-color="#D3E2F4"/>
</linearGradient>
<linearGradient id="paint4_linear_2795_14200" x1="28.0798" y1="36.4112" x2="21.7638" y2="54.5134" gradientUnits="userSpaceOnUse">
<stop offset="0.8" stop-color="#9897BA"/>
<stop offset="1" stop-color="#D3E2F4"/>
</linearGradient>
<clipPath id="clip0_2795_14200">
<rect width="44" height="44" fill="white" transform="translate(12 12.0488)"/>
</clipPath>
</defs>
</svg>
