<svg width="103" height="42" viewBox="0 0 103 42" fill="none" xmlns="http://www.w3.org/2000/svg">
<path d="M27.0392 32.0696H19.6467L10.3501 16.5006C9.56602 15.1938 8.96865 14.1858 8.03525 12.9164C8.1846 14.6711 8.25927 16.4259 8.25927 17.994V32.0696H0.866788V0.483547H8.25927L17.3319 15.3058C18.2653 16.8366 19.1613 18.4794 19.8707 20.3088C19.6467 18.5914 19.6467 16.7619 19.6467 15.0072V0.483547H27.0392V32.0696ZM36.2985 22.885V23.0343C36.2985 25.7225 38.5014 27.1039 40.9655 27.1039C43.6537 27.1039 45.2591 26.4692 45.2591 25.2745V24.5651H52.5769V25.6478C52.5769 29.6054 47.6486 32.5923 40.9655 32.5923C34.1331 32.5923 28.9807 28.4854 28.9807 22.661V18.1807C28.9807 11.983 34.1331 7.98804 40.9655 7.98804C47.798 7.98804 52.9503 11.983 52.9503 18.1807V22.885H36.2985ZM41.3389 9.74282C41.1149 13.8871 36.9333 15.4179 33.3864 15.4925C37.0453 15.6045 41.3389 17.434 41.3389 21.5783C41.3389 17.434 45.3338 15.5672 48.9554 15.4552C45.4458 15.3805 41.5256 13.8871 41.3389 9.74282ZM68.9438 30.9869L64.6876 31.8082C58.1165 33.0777 54.3829 30.2401 54.3829 23.3704V8.51074H61.7007V22.6237C61.7007 25.6105 63.1195 26.7679 65.8076 26.0585L68.9438 25.2372V8.51074H76.2616V32.0696H68.9438V30.9869ZM85.5333 41.1795H78.2155V8.51074H91.0963C98.3768 8.51074 102.185 13.8497 102.185 20.4955C102.185 27.1039 98.0034 32.0696 91.0963 32.0696H85.5333V41.1795ZM90.4243 9.70548C90.2749 16.6499 87.5121 20.1222 81.0903 20.2715C87.5121 20.4582 90.2749 24.2291 90.4243 30.9122C90.5363 24.2291 93.2991 20.4208 99.7582 20.2342C93.2991 20.0848 90.5363 16.6499 90.4243 9.70548Z" fill="white"/>
</svg>
