<svg width="127" height="100" viewBox="0 0 127 100" fill="none" xmlns="http://www.w3.org/2000/svg">
<path fill-rule="evenodd" clip-rule="evenodd" d="M126.242 10.2891C126.242 8.63221 124.899 7.28906 123.242 7.28906L41 7.28906C39.3431 7.28906 38 8.63221 38 10.2891V95.2891C38 96.9459 39.3431 98.2891 41 98.2891H114.01C114.782 98.2891 115.523 97.9918 116.082 97.4591L125.314 88.6465C125.907 88.0804 126.242 87.2963 126.242 86.4764V10.2891Z" fill="#212A3C"/>
<path fill-rule="evenodd" clip-rule="evenodd" d="M12.6127 96.5085C12.609 96.5099 12.6054 96.5113 12.6017 96.5127C8.98638 97.8821 4.86614 95.8521 3.39889 91.9785C1.93163 88.105 3.67298 83.8547 7.28831 82.4853C7.29196 82.4839 7.29561 82.4825 7.29927 82.4811L7.29926 82.4811L56.8627 63.7071L62.1761 77.7345L12.6127 96.5085L12.6127 96.5085Z" fill="#7E58E9"/>
<path fill-rule="evenodd" clip-rule="evenodd" d="M62.3811 77.762L73.0329 65.6543L57.0326 63.6421L57.0731 63.749C56.9876 63.7553 56.9052 63.7732 56.8263 63.8031C55.5351 64.2921 55.6734 67.8171 57.1352 71.6762C58.5969 75.5353 60.8287 78.2673 62.1199 77.7782C62.1988 77.7483 62.2723 77.7071 62.3406 77.6551L62.3811 77.762Z" fill="#FAEDE6"/>
<path fill-rule="evenodd" clip-rule="evenodd" d="M67.8673 64.8856C67.8594 65.6539 68.0024 66.4808 68.313 67.3009C68.6236 68.1209 69.0644 68.835 69.5793 69.4053L72.9888 65.5297L67.8673 64.8856Z" fill="#0A0A0A"/>
<rect x="69" width="27" height="12" transform="rotate(5.61139 69 0)" fill="#E1D2FA" fill-opacity="0.4"/>
</svg>
