<svg width="76" height="42" viewBox="0 0 76 42" fill="none" xmlns="http://www.w3.org/2000/svg">
<path fill-rule="evenodd" clip-rule="evenodd" d="M12.6127 38.5085C12.609 38.5099 12.6054 38.5113 12.6017 38.5127C8.98638 39.8821 4.86614 37.8521 3.39889 33.9785C1.93163 30.105 3.67298 25.8547 7.28831 24.4853C7.29196 24.4839 7.29561 24.4825 7.29927 24.4811L7.29926 24.4811L56.8627 5.70711L62.1761 19.7345L12.6127 38.5085L12.6127 38.5085Z" fill="#7E58E9"/>
<path fill-rule="evenodd" clip-rule="evenodd" d="M62.3811 19.762L73.0329 7.65433L57.0326 5.64209L57.0731 5.749C56.9876 5.75531 56.9052 5.77317 56.8263 5.80306C55.5351 6.29214 55.6734 9.81706 57.1352 13.6762C58.5969 17.5353 60.8287 20.2673 62.1199 19.7782C62.1988 19.7483 62.2723 19.7071 62.3406 19.6551L62.3811 19.762Z" fill="#FAEDE6"/>
<path fill-rule="evenodd" clip-rule="evenodd" d="M67.8673 6.88562C67.8594 7.65391 68.0024 8.48083 68.313 9.30085C68.6236 10.1209 69.0644 10.835 69.5793 11.4053L72.9888 7.52972L67.8673 6.88562Z" fill="#0A0A0A"/>
</svg>
