<svg width="20" height="20" viewBox="0 0 20 20" fill="none" xmlns="http://www.w3.org/2000/svg">
<path d="M3.7089 11.5902L9.50275 17.0329C9.6479 17.1693 9.72047 17.2374 9.79939 17.272C9.92727 17.328 10.0727 17.328 10.2006 17.272C10.2795 17.2374 10.3521 17.1693 10.4973 17.0329L16.2911 11.5902C17.9213 10.0589 18.1192 7.53887 16.7482 5.77176L16.4904 5.43949C14.8502 3.32552 11.558 3.68005 10.4056 6.09475C10.2428 6.43584 9.75725 6.43584 9.59445 6.09475C8.44198 3.68005 5.14978 3.32553 3.50963 5.43949L3.25183 5.77177C1.8808 7.53888 2.07876 10.0589 3.7089 11.5902Z" stroke="#D1D3D8" stroke-width="1.3"/>
</svg>
