<svg width="338" height="92" viewBox="0 0 338 92" fill="none" xmlns="http://www.w3.org/2000/svg">
<mask id="path-1-inside-1_106_336" fill="white">
<path fill-rule="evenodd" clip-rule="evenodd" d="M91.4937 73.1394C89.2717 70.2072 84.2153 70.2072 81.9932 73.1394C73.6643 84.1304 60.4688 91.2301 45.615 91.2301C20.4226 91.2301 0 70.8075 0 45.615C0 20.4226 20.4226 0 45.615 0C60.4688 0 73.6644 7.09973 81.9933 18.0908C84.2153 21.0231 89.2718 21.0231 91.4938 18.0908C99.8228 7.09983 113.018 0.000155536 127.872 0.000155536C142.807 0.000155536 156.065 7.17744 164.386 18.2709C166.624 21.2542 171.814 21.2501 174.048 18.2645C182.346 7.17634 195.585 0 210.5 0C225.267 0 238.391 7.03453 246.703 17.9353C248.917 20.8389 253.903 20.8427 256.12 17.9415C264.455 7.03557 277.599 0.000155536 292.385 0.000155536C317.577 0.000155536 338 20.4227 338 45.6152C338 70.8077 317.577 91.2302 292.385 91.2302C277.552 91.2302 264.373 84.1509 256.043 73.1868C253.833 70.2794 248.847 70.2691 246.625 73.1664C238.309 84.0092 225.221 91 210.5 91C195.631 91 182.427 83.8674 174.125 72.8371C171.882 69.8576 166.692 69.8681 164.462 72.8576C156.146 84.009 142.852 91.2302 127.872 91.2302C113.018 91.2302 99.8227 84.1305 91.4937 73.1394Z"/>
</mask>
<path fill-rule="evenodd" clip-rule="evenodd" d="M91.4937 73.1394C89.2717 70.2072 84.2153 70.2072 81.9932 73.1394C73.6643 84.1304 60.4688 91.2301 45.615 91.2301C20.4226 91.2301 0 70.8075 0 45.615C0 20.4226 20.4226 0 45.615 0C60.4688 0 73.6644 7.09973 81.9933 18.0908C84.2153 21.0231 89.2718 21.0231 91.4938 18.0908C99.8228 7.09983 113.018 0.000155536 127.872 0.000155536C142.807 0.000155536 156.065 7.17744 164.386 18.2709C166.624 21.2542 171.814 21.2501 174.048 18.2645C182.346 7.17634 195.585 0 210.5 0C225.267 0 238.391 7.03453 246.703 17.9353C248.917 20.8389 253.903 20.8427 256.12 17.9415C264.455 7.03557 277.599 0.000155536 292.385 0.000155536C317.577 0.000155536 338 20.4227 338 45.6152C338 70.8077 317.577 91.2302 292.385 91.2302C277.552 91.2302 264.373 84.1509 256.043 73.1868C253.833 70.2794 248.847 70.2691 246.625 73.1664C238.309 84.0092 225.221 91 210.5 91C195.631 91 182.427 83.8674 174.125 72.8371C171.882 69.8576 166.692 69.8681 164.462 72.8576C156.146 84.009 142.852 91.2302 127.872 91.2302C113.018 91.2302 99.8227 84.1305 91.4937 73.1394Z" fill="#0C0C14"/>
<path d="M164.462 72.8576L163.582 72.2015L164.462 72.8576ZM81.9932 73.1394L81.1186 72.4766L81.9932 73.1394ZM256.043 73.1868L255.169 73.8507L256.043 73.1868ZM246.625 73.1664L247.496 73.8343L246.625 73.1664ZM246.703 17.9353L247.576 17.2699L246.703 17.9353ZM256.12 17.9415L255.248 17.2752L256.12 17.9415ZM81.9933 18.0908L82.868 17.428L81.9933 18.0908ZM91.4938 18.0908L90.6192 17.428L91.4938 18.0908ZM174.048 18.2645L174.927 18.922L174.048 18.2645ZM45.615 92.3275C60.8268 92.3275 74.3404 85.0552 82.8679 73.8022L81.1186 72.4766C72.9881 83.2057 60.1107 90.1327 45.615 90.1327V92.3275ZM-1.0974 45.615C-1.0974 71.4136 19.8165 92.3275 45.615 92.3275V90.1327C21.0286 90.1327 1.0974 70.2015 1.0974 45.615H-1.0974ZM45.615 -1.0974C19.8165 -1.0974 -1.0974 19.8165 -1.0974 45.615H1.0974C1.0974 21.0286 21.0286 1.0974 45.615 1.0974V-1.0974ZM82.868 17.428C74.3405 6.17496 60.8269 -1.0974 45.615 -1.0974V1.0974C60.1108 1.0974 72.9883 8.0245 81.1187 18.7536L82.868 17.428ZM127.872 -1.09725C112.66 -1.09725 99.1467 6.17505 90.6192 17.428L92.3685 18.7536C100.499 8.0246 113.376 1.09756 127.872 1.09756V-1.09725ZM165.264 17.6124C156.745 6.25455 143.167 -1.09725 127.872 -1.09725V1.09756C142.447 1.09756 155.385 8.10033 163.508 18.9294L165.264 17.6124ZM210.5 -1.0974C195.225 -1.0974 181.666 6.25387 173.17 17.6069L174.927 18.922C183.027 8.09881 195.946 1.0974 210.5 1.0974V-1.0974ZM247.576 17.2699C239.065 6.10861 225.624 -1.0974 210.5 -1.0974V1.0974C224.91 1.0974 237.717 7.96045 245.83 18.6007L247.576 17.2699ZM256.992 18.6079C265.129 7.9619 277.955 1.09756 292.385 1.09756V-1.09725C277.242 -1.09725 263.782 6.10924 255.248 17.2752L256.992 18.6079ZM292.385 1.09756C316.971 1.09756 336.903 21.0288 336.903 45.6152H339.097C339.097 19.8166 318.183 -1.09725 292.385 -1.09725V1.09756ZM336.903 45.6152C336.903 70.2016 316.971 90.1328 292.385 90.1328V92.3276C318.183 92.3276 339.097 71.4138 339.097 45.6152H336.903ZM292.385 90.1328C277.91 90.1328 265.049 83.2256 256.916 72.5228L255.169 73.8507C263.698 85.0762 277.195 92.3276 292.385 92.3276V90.1328ZM210.5 92.0974C225.576 92.0974 238.981 84.9362 247.496 73.8343L245.754 72.4986C237.637 83.0822 224.865 89.9026 210.5 89.9026V92.0974ZM173.248 73.497C181.749 84.791 195.271 92.0974 210.5 92.0974V89.9026C195.99 89.9026 183.106 82.9439 175.001 72.1771L173.248 73.497ZM127.872 92.3276C143.214 92.3276 156.828 84.9308 165.342 73.5136L163.582 72.2015C155.465 83.0872 142.491 90.1328 127.872 90.1328V92.3276ZM90.6191 73.8022C99.1466 85.0553 112.66 92.3276 127.872 92.3276V90.1328C113.376 90.1328 100.499 83.2057 92.3684 72.4766L90.6191 73.8022ZM175.001 72.1771C173.631 70.3562 171.413 69.5071 169.286 69.5116C167.159 69.516 164.945 70.3743 163.582 72.2015L165.342 73.5136C166.209 72.3514 167.704 71.7097 169.291 71.7064C170.877 71.7031 172.376 72.3385 173.248 73.497L175.001 72.1771ZM82.8679 73.8022C83.7323 72.6615 85.197 72.0376 86.7435 72.0376C88.29 72.0377 89.7547 72.6615 90.6191 73.8022L92.3684 72.4766C91.0108 70.6851 88.8362 69.8428 86.7435 69.8428C84.6508 69.8428 82.4762 70.6851 81.1186 72.4766L82.8679 73.8022ZM256.916 72.5228C255.567 70.7468 253.416 69.9068 251.341 69.9024C249.266 69.898 247.112 70.7289 245.754 72.4986L247.496 73.8343C248.361 72.7067 249.81 72.094 251.336 72.0972C252.863 72.1005 254.309 72.7193 255.169 73.8507L256.916 72.5228ZM245.83 18.6007C247.183 20.3742 249.335 21.2112 251.41 21.2126C253.484 21.2141 255.638 20.3801 256.992 18.6079L255.248 17.2752C254.386 18.4041 252.937 19.0189 251.411 19.0178C249.885 19.0167 248.437 18.4 247.576 17.2699L245.83 18.6007ZM81.1187 18.7536C82.4763 20.5451 84.6509 21.3874 86.7436 21.3874C88.8363 21.3874 91.0109 20.5451 92.3685 18.7536L90.6192 17.428C89.7548 18.5688 88.2901 19.1926 86.7436 19.1926C85.1971 19.1926 83.7324 18.5687 82.868 17.428L81.1187 18.7536ZM163.508 18.9294C164.876 20.7528 167.092 21.6049 169.219 21.6034C171.346 21.6019 173.561 20.7467 174.927 18.922L173.17 17.6069C172.301 18.7679 170.804 19.4075 169.218 19.4086C167.631 19.4098 166.134 18.7723 165.264 17.6124L163.508 18.9294Z" fill="#21202F" mask="url(#path-1-inside-1_106_336)"/>
<circle cx="45.4708" cy="45.543" r="33.4708" fill="#21202F"/>
<circle cx="127.471" cy="45.543" r="33.4708" fill="#21202F"/>
<circle cx="210.471" cy="45.543" r="33.4708" fill="#21202F"/>
<circle cx="292.459" cy="45.543" r="33.4708" fill="#21202F"/>
<g opacity="0.2" clip-path="url(#clip0_106_336)">
<path d="M61.559 61.6068C70.1509 53.0149 70.1509 39.0846 61.559 30.4927C52.9671 21.9008 39.0369 21.9008 30.445 30.4927C21.8531 39.0846 21.8531 53.0149 30.445 61.6068C39.0369 70.1987 52.9671 70.1987 61.559 61.6068Z" fill="url(#paint0_radial_106_336)"/>
<path d="M51.685 41.7572C57.1515 41.7572 58.3498 42.8805 59.1862 43.4844C59.8388 43.9532 60.842 45.8829 60.9377 46.8186C61.0371 47.7788 60.5157 49.4253 59.8181 50.513C59.4637 51.0662 59.0117 51.5181 58.4398 51.8425C57.7384 52.242 56.9433 52.0563 56.2232 52.4108C55.2499 52.889 55.6437 53.9973 54.8261 54.5167C54.0497 55.0099 53.2733 54.5617 52.5851 54.1529C51.7731 53.671 50.6667 52.587 49.7834 51.7694C44.0132 46.4417 47.6268 41.7553 51.685 41.7553V41.7572Z" fill="url(#paint1_linear_106_336)"/>
<path d="M30.4792 34.0235C30.1772 34.2392 29.9334 34.5373 29.7103 34.8393C29.0277 35.7619 27.1843 38.1079 28.0975 39.295C30.0778 41.8697 34.5204 37.4178 33.9766 35.008C33.7365 33.9447 31.6212 33.4272 30.7211 33.8772C30.6367 33.9204 30.556 33.9691 30.4792 34.0235Z" fill="url(#paint2_linear_106_336)"/>
<path d="M55.3249 55.49C54.6123 56.8252 54.451 58.2692 56.0806 58.1623C57.3577 58.0779 58.9217 57.4722 59.8068 56.5308C59.94 56.3901 60.0656 56.2307 60.1013 56.0413C60.1463 55.7994 60.0356 55.5575 59.9269 55.3362C59.6831 54.8355 59.4336 54.3273 59.0548 53.9204C57.5884 52.3432 56.0469 54.1341 55.3249 55.49Z" fill="url(#paint3_linear_106_336)"/>
<path d="M37.0033 54.7343C34.1004 53.3784 33.7891 57.0802 37.0033 58.5561C40.2176 60.0338 40.9133 56.5589 37.0033 54.7343Z" fill="url(#paint4_linear_106_336)"/>
</g>
<g opacity="0.2" clip-path="url(#clip1_106_336)">
<path d="M144 46.5498C144 48.4907 143.871 50.3875 143.621 52.2268C143.533 52.877 143.431 53.5176 143.313 54.1505C143.024 55.7155 142.649 57.2345 142.193 58.6921C141.652 60.4259 140.999 62.0753 140.248 63.625C138.752 66.7032 135.768 68.7573 132.43 68.997C131.96 69.0316 131.486 69.0488 131.009 69.0527C119.003 69.1198 109.108 59.1025 109 46.755C108.892 34.2368 118.727 24.0488 130.878 24.0488C132.294 24.0488 133.678 24.1869 135.017 24.4516C136.751 24.793 138.263 25.8843 139.168 27.4455C141.814 32.0197 143.53 37.6814 143.918 43.8762C143.974 44.7585 144 45.6503 144 46.5517V46.5498Z" fill="url(#paint5_radial_106_336)"/>
<path d="M144 46.5498C144 48.4907 143.871 50.3875 143.621 52.2268C143.504 52.3169 143.379 52.4013 143.25 52.4781C142.553 52.8866 141.762 52.6967 141.046 53.0592C140.078 53.5502 140.47 54.6817 139.657 55.213C138.885 55.7174 138.113 55.2571 137.428 54.8409C136.621 54.3461 135.522 53.2375 134.642 52.4052C128.904 46.9564 132.498 42.1635 136.533 42.1635C141.814 42.1635 143.09 43.2491 143.92 43.8762C143.976 44.7585 144.002 45.6503 144.002 46.5517L144 46.5498Z" fill="url(#paint6_linear_106_336)"/>
<path d="M115.443 34.2521C115.143 34.4727 114.901 34.7776 114.679 35.0864C114 36.03 112.167 38.4293 113.075 39.6434C115.044 42.2767 119.462 37.7235 118.921 35.259C118.682 34.1716 116.579 33.6422 115.684 34.1025C115.6 34.1466 115.52 34.1965 115.443 34.2521Z" fill="url(#paint7_linear_106_336)"/>
<path d="M143.314 54.1486C143.025 55.7136 142.65 57.2326 142.193 58.6902C141.755 58.8244 141.315 58.9088 140.904 58.9376C139.284 59.0488 139.444 57.5701 140.153 56.2065C140.781 54.9905 142.033 53.437 143.316 54.1505L143.314 54.1486Z" fill="url(#paint8_linear_106_336)"/>
<path d="M121.931 55.4336C119.044 54.0469 118.735 57.8329 121.931 59.3423C125.127 60.8536 125.819 57.2997 121.931 55.4336Z" fill="url(#paint9_linear_106_336)"/>
</g>
<g opacity="0.2" clip-path="url(#clip2_106_336)">
<path d="M213 69.0488C201.401 69.0488 192 58.9759 192 46.5498C192 34.1236 201.401 24.0488 213 24.0488C211.81 24.0488 210.075 32.9614 210.075 46.5498C210.075 61.4635 211.81 69.0488 213 69.0488Z" fill="url(#paint10_radial_106_336)"/>
<path d="M198.184 34.2521C197.896 34.4727 197.663 34.7776 197.45 35.0864C196.799 36.03 195.039 38.4293 195.911 39.6434C197.801 42.2767 202.042 37.7235 201.523 35.259C201.293 34.1716 199.274 33.6422 198.415 34.1025C198.335 34.1466 198.258 34.1965 198.184 34.2521Z" fill="url(#paint11_linear_106_336)"/>
<path d="M204.412 55.4317C201.641 54.045 201.344 57.831 204.412 59.3404C207.48 60.8517 208.144 57.2978 204.412 55.4317Z" fill="url(#paint12_linear_106_336)"/>
</g>
<g opacity="0.2" clip-path="url(#clip3_106_336)">
<path d="M298 68.0488C286.934 67.9325 278 58.1277 278 46.0498C278 33.9718 286.934 24.1651 298 24.0488C293.304 25.9074 289.391 29.7014 286.979 34.6058C286.292 36.003 285.727 37.4902 285.3 39.0487C284.694 41.258 284.368 43.6098 284.368 46.0498C284.368 56.2485 290.068 64.9112 298.002 68.0507L298 68.0488Z" fill="url(#paint13_radial_106_336)"/>
</g>
<defs>
<radialGradient id="paint0_radial_106_336" cx="0" cy="0" r="1" gradientUnits="userSpaceOnUse" gradientTransform="translate(49.6914 27.1044) scale(45.2471)">
<stop offset="0.11" stop-color="#F7FCFF"/>
<stop offset="0.42" stop-color="#CACCDE"/>
<stop offset="0.8" stop-color="#9897BA"/>
<stop offset="1" stop-color="#D3E2F4"/>
</radialGradient>
<linearGradient id="paint1_linear_106_336" x1="54.511" y1="58.1717" x2="52.5157" y2="22.7624" gradientUnits="userSpaceOnUse">
<stop offset="0.09" stop-color="#9897BA"/>
<stop offset="1" stop-color="#D3E2F4"/>
</linearGradient>
<linearGradient id="paint2_linear_106_336" x1="36.5633" y1="26.6728" x2="19.2401" y2="58.5545" gradientUnits="userSpaceOnUse">
<stop offset="0.8" stop-color="#9897BA"/>
<stop offset="1" stop-color="#D3E2F4"/>
</linearGradient>
<linearGradient id="paint3_linear_106_336" x1="61.879" y1="43.7356" x2="52.5438" y2="70.483" gradientUnits="userSpaceOnUse">
<stop offset="0.8" stop-color="#9897BA"/>
<stop offset="1" stop-color="#D3E2F4"/>
</linearGradient>
<linearGradient id="paint4_linear_106_336" x1="40.0807" y1="48.4108" x2="33.7647" y2="66.513" gradientUnits="userSpaceOnUse">
<stop offset="0.8" stop-color="#9897BA"/>
<stop offset="1" stop-color="#D3E2F4"/>
</linearGradient>
<radialGradient id="paint5_radial_106_336" cx="0" cy="0" r="1" gradientUnits="userSpaceOnUse" gradientTransform="translate(129.435 27.1731) scale(43.6251 44.8657)">
<stop offset="0.11" stop-color="#F7FCFF"/>
<stop offset="0.42" stop-color="#CACCDE"/>
<stop offset="0.8" stop-color="#9897BA"/>
<stop offset="1" stop-color="#D3E2F4"/>
</radialGradient>
<linearGradient id="paint6_linear_106_336" x1="138.53" y1="58.9951" x2="136.432" y2="22.7877" gradientUnits="userSpaceOnUse">
<stop offset="0.09" stop-color="#9897BA"/>
<stop offset="1" stop-color="#D3E2F4"/>
</linearGradient>
<linearGradient id="paint7_linear_106_336" x1="121.497" y1="26.7326" x2="103.51" y2="58.9145" gradientUnits="userSpaceOnUse">
<stop offset="0.8" stop-color="#9897BA"/>
<stop offset="1" stop-color="#D3E2F4"/>
</linearGradient>
<linearGradient id="paint8_linear_106_336" x1="145.747" y1="43.8532" x2="135.991" y2="71.0401" gradientUnits="userSpaceOnUse">
<stop offset="0.8" stop-color="#9897BA"/>
<stop offset="1" stop-color="#D3E2F4"/>
</linearGradient>
<linearGradient id="paint9_linear_106_336" x1="124.993" y1="48.9644" x2="118.389" y2="67.3628" gradientUnits="userSpaceOnUse">
<stop offset="0.8" stop-color="#9897BA"/>
<stop offset="1" stop-color="#D3E2F4"/>
</linearGradient>
<radialGradient id="paint10_radial_106_336" cx="0" cy="0" r="1" gradientUnits="userSpaceOnUse" gradientTransform="translate(208.409 36.2372) scale(31.9708 34.2558)">
<stop offset="0.11" stop-color="#F7FCFF"/>
<stop offset="0.42" stop-color="#CACCDE"/>
<stop offset="0.8" stop-color="#9897BA"/>
<stop offset="1" stop-color="#D3E2F4"/>
</radialGradient>
<linearGradient id="paint11_linear_106_336" x1="203.996" y1="26.7281" x2="185.632" y2="58.27" gradientUnits="userSpaceOnUse">
<stop offset="0.8" stop-color="#9897BA"/>
<stop offset="1" stop-color="#D3E2F4"/>
</linearGradient>
<linearGradient id="paint12_linear_106_336" x1="207.351" y1="48.9645" x2="200.537" y2="67.1851" gradientUnits="userSpaceOnUse">
<stop offset="0.8" stop-color="#9897BA"/>
<stop offset="1" stop-color="#D3E2F4"/>
</linearGradient>
<radialGradient id="paint13_radial_106_336" cx="0" cy="0" r="1" gradientUnits="userSpaceOnUse" gradientTransform="translate(293.626 35.9655) scale(30.7474 33.4862)">
<stop offset="0.11" stop-color="#F7FCFF"/>
<stop offset="0.42" stop-color="#CACCDE"/>
<stop offset="0.8" stop-color="#9897BA"/>
<stop offset="1" stop-color="#D3E2F4"/>
</radialGradient>
<clipPath id="clip0_106_336">
<rect width="44" height="44" fill="white" transform="translate(24 24.0488)"/>
</clipPath>
<clipPath id="clip1_106_336">
<rect width="35" height="45" fill="white" transform="translate(109 24.0488)"/>
</clipPath>
<clipPath id="clip2_106_336">
<rect width="21" height="45" fill="white" transform="translate(192 24.0488)"/>
</clipPath>
<clipPath id="clip3_106_336">
<rect width="20" height="44" fill="white" transform="translate(278 24.0488)"/>
</clipPath>
</defs>
</svg>
