<svg width="338" height="92" viewBox="0 0 338 92" fill="none" xmlns="http://www.w3.org/2000/svg">
<mask id="path-1-inside-1_106_1103" fill="white">
<path fill-rule="evenodd" clip-rule="evenodd" d="M91.4937 73.1394C89.2717 70.2072 84.2153 70.2072 81.9932 73.1394C73.6643 84.1304 60.4688 91.2301 45.615 91.2301C20.4226 91.2301 0 70.8075 0 45.615C0 20.4226 20.4226 0 45.615 0C60.4688 0 73.6644 7.09973 81.9933 18.0908C84.2153 21.0231 89.2718 21.0231 91.4938 18.0908C99.8228 7.09983 113.018 0.000155536 127.872 0.000155536C142.807 0.000155536 156.065 7.17744 164.386 18.2709C166.624 21.2542 171.814 21.2501 174.048 18.2645C182.346 7.17634 195.585 0 210.5 0C225.267 0 238.391 7.03453 246.703 17.9353C248.917 20.8389 253.903 20.8427 256.12 17.9415C264.455 7.03557 277.599 0.000155536 292.385 0.000155536C317.577 0.000155536 338 20.4227 338 45.6152C338 70.8077 317.577 91.2302 292.385 91.2302C277.552 91.2302 264.373 84.1509 256.043 73.1868C253.833 70.2794 248.847 70.2691 246.625 73.1664C238.309 84.0092 225.221 91 210.5 91C195.631 91 182.427 83.8674 174.125 72.8371C171.882 69.8576 166.692 69.8681 164.462 72.8576C156.146 84.009 142.852 91.2302 127.872 91.2302C113.018 91.2302 99.8227 84.1305 91.4937 73.1394Z"/>
</mask>
<path fill-rule="evenodd" clip-rule="evenodd" d="M91.4937 73.1394C89.2717 70.2072 84.2153 70.2072 81.9932 73.1394C73.6643 84.1304 60.4688 91.2301 45.615 91.2301C20.4226 91.2301 0 70.8075 0 45.615C0 20.4226 20.4226 0 45.615 0C60.4688 0 73.6644 7.09973 81.9933 18.0908C84.2153 21.0231 89.2718 21.0231 91.4938 18.0908C99.8228 7.09983 113.018 0.000155536 127.872 0.000155536C142.807 0.000155536 156.065 7.17744 164.386 18.2709C166.624 21.2542 171.814 21.2501 174.048 18.2645C182.346 7.17634 195.585 0 210.5 0C225.267 0 238.391 7.03453 246.703 17.9353C248.917 20.8389 253.903 20.8427 256.12 17.9415C264.455 7.03557 277.599 0.000155536 292.385 0.000155536C317.577 0.000155536 338 20.4227 338 45.6152C338 70.8077 317.577 91.2302 292.385 91.2302C277.552 91.2302 264.373 84.1509 256.043 73.1868C253.833 70.2794 248.847 70.2691 246.625 73.1664C238.309 84.0092 225.221 91 210.5 91C195.631 91 182.427 83.8674 174.125 72.8371C171.882 69.8576 166.692 69.8681 164.462 72.8576C156.146 84.009 142.852 91.2302 127.872 91.2302C113.018 91.2302 99.8227 84.1305 91.4937 73.1394Z" fill="#0C0C14"/>
<path d="M164.462 72.8576L163.582 72.2015L164.462 72.8576ZM81.9932 73.1394L81.1186 72.4766L81.9932 73.1394ZM256.043 73.1868L255.169 73.8507L256.043 73.1868ZM246.625 73.1664L247.496 73.8343L246.625 73.1664ZM246.703 17.9353L247.576 17.2699L246.703 17.9353ZM256.12 17.9415L255.248 17.2752L256.12 17.9415ZM81.9933 18.0908L82.868 17.428L81.9933 18.0908ZM91.4938 18.0908L90.6192 17.428L91.4938 18.0908ZM174.048 18.2645L174.927 18.922L174.048 18.2645ZM45.615 92.3275C60.8268 92.3275 74.3404 85.0552 82.8679 73.8022L81.1186 72.4766C72.9881 83.2057 60.1107 90.1327 45.615 90.1327V92.3275ZM-1.0974 45.615C-1.0974 71.4136 19.8165 92.3275 45.615 92.3275V90.1327C21.0286 90.1327 1.0974 70.2015 1.0974 45.615H-1.0974ZM45.615 -1.0974C19.8165 -1.0974 -1.0974 19.8165 -1.0974 45.615H1.0974C1.0974 21.0286 21.0286 1.0974 45.615 1.0974V-1.0974ZM82.868 17.428C74.3405 6.17496 60.8269 -1.0974 45.615 -1.0974V1.0974C60.1108 1.0974 72.9883 8.0245 81.1187 18.7536L82.868 17.428ZM127.872 -1.09725C112.66 -1.09725 99.1467 6.17505 90.6192 17.428L92.3685 18.7536C100.499 8.0246 113.376 1.09756 127.872 1.09756V-1.09725ZM165.264 17.6124C156.745 6.25455 143.167 -1.09725 127.872 -1.09725V1.09756C142.447 1.09756 155.385 8.10033 163.508 18.9294L165.264 17.6124ZM210.5 -1.0974C195.225 -1.0974 181.666 6.25387 173.17 17.6069L174.927 18.922C183.027 8.09881 195.946 1.0974 210.5 1.0974V-1.0974ZM247.576 17.2699C239.065 6.10861 225.624 -1.0974 210.5 -1.0974V1.0974C224.91 1.0974 237.717 7.96045 245.83 18.6007L247.576 17.2699ZM256.992 18.6079C265.129 7.9619 277.955 1.09756 292.385 1.09756V-1.09725C277.242 -1.09725 263.782 6.10924 255.248 17.2752L256.992 18.6079ZM292.385 1.09756C316.971 1.09756 336.903 21.0288 336.903 45.6152H339.097C339.097 19.8166 318.183 -1.09725 292.385 -1.09725V1.09756ZM336.903 45.6152C336.903 70.2016 316.971 90.1328 292.385 90.1328V92.3276C318.183 92.3276 339.097 71.4138 339.097 45.6152H336.903ZM292.385 90.1328C277.91 90.1328 265.049 83.2256 256.916 72.5228L255.169 73.8507C263.698 85.0762 277.195 92.3276 292.385 92.3276V90.1328ZM210.5 92.0974C225.576 92.0974 238.981 84.9362 247.496 73.8343L245.754 72.4986C237.637 83.0822 224.865 89.9026 210.5 89.9026V92.0974ZM173.248 73.497C181.749 84.791 195.271 92.0974 210.5 92.0974V89.9026C195.99 89.9026 183.106 82.9439 175.001 72.1771L173.248 73.497ZM127.872 92.3276C143.214 92.3276 156.828 84.9308 165.342 73.5136L163.582 72.2015C155.465 83.0872 142.491 90.1328 127.872 90.1328V92.3276ZM90.6191 73.8022C99.1466 85.0553 112.66 92.3276 127.872 92.3276V90.1328C113.376 90.1328 100.499 83.2057 92.3684 72.4766L90.6191 73.8022ZM175.001 72.1771C173.631 70.3562 171.413 69.5071 169.286 69.5116C167.159 69.516 164.945 70.3743 163.582 72.2015L165.342 73.5136C166.209 72.3514 167.704 71.7097 169.291 71.7064C170.877 71.7031 172.376 72.3385 173.248 73.497L175.001 72.1771ZM82.8679 73.8022C83.7323 72.6615 85.197 72.0376 86.7435 72.0376C88.29 72.0377 89.7547 72.6615 90.6191 73.8022L92.3684 72.4766C91.0108 70.6851 88.8362 69.8428 86.7435 69.8428C84.6508 69.8428 82.4762 70.6851 81.1186 72.4766L82.8679 73.8022ZM256.916 72.5228C255.567 70.7468 253.416 69.9068 251.341 69.9024C249.266 69.898 247.112 70.7289 245.754 72.4986L247.496 73.8343C248.361 72.7067 249.81 72.094 251.336 72.0972C252.863 72.1005 254.309 72.7193 255.169 73.8507L256.916 72.5228ZM245.83 18.6007C247.183 20.3742 249.335 21.2112 251.41 21.2126C253.484 21.2141 255.638 20.3801 256.992 18.6079L255.248 17.2752C254.386 18.4041 252.937 19.0189 251.411 19.0178C249.885 19.0167 248.437 18.4 247.576 17.2699L245.83 18.6007ZM81.1187 18.7536C82.4763 20.5451 84.6509 21.3874 86.7436 21.3874C88.8363 21.3874 91.0109 20.5451 92.3685 18.7536L90.6192 17.428C89.7548 18.5688 88.2901 19.1926 86.7436 19.1926C85.1971 19.1926 83.7324 18.5687 82.868 17.428L81.1187 18.7536ZM163.508 18.9294C164.876 20.7528 167.092 21.6049 169.219 21.6034C171.346 21.6019 173.561 20.7467 174.927 18.922L173.17 17.6069C172.301 18.7679 170.804 19.4075 169.218 19.4086C167.631 19.4098 166.134 18.7723 165.264 17.6124L163.508 18.9294Z" fill="#21202F" mask="url(#path-1-inside-1_106_1103)"/>
</svg>
