<svg width="24" height="23" viewBox="0 0 24 23" fill="none" xmlns="http://www.w3.org/2000/svg">
<path d="M20.65 12.458C20.65 12.099 20.359 11.808 20 11.808C19.641 11.808 19.35 12.099 19.35 12.458H20.65ZM20 17.2497H20.65H20ZM18 19.1663V18.5163V19.1663ZM6 19.1663V19.8163V19.1663ZM4 17.2497H4.65H4ZM4.65 12.458C4.65 12.099 4.35899 11.808 4 11.808C3.64102 11.808 3.35 12.099 3.35 12.458H4.65ZM15.5503 8.13563C15.8094 8.38402 16.2209 8.37526 16.4693 8.11608C16.7177 7.8569 16.7089 7.44543 16.4497 7.19705L15.5503 8.13563ZM12 3.83301L12.4497 3.36372C12.1983 3.12277 11.8017 3.12277 11.5503 3.36372L12 3.83301ZM7.55026 7.19705C7.29108 7.44543 7.28232 7.8569 7.53071 8.11608C7.77909 8.37526 8.19056 8.38402 8.44974 8.13563L7.55026 7.19705ZM11.35 15.333C11.35 15.692 11.641 15.983 12 15.983C12.359 15.983 12.65 15.692 12.65 15.333L11.35 15.333ZM19.35 12.458V17.2497H20.65V12.458H19.35ZM18 18.5163H6V19.8163H18V18.5163ZM4.65 17.2497L4.65 12.458H3.35L3.35 17.2497H4.65ZM6 18.5163C5.22807 18.5163 4.65 17.9234 4.65 17.2497H3.35C3.35 18.693 4.56279 19.8163 6 19.8163V18.5163ZM19.35 17.2497C19.35 17.9234 18.7719 18.5163 18 18.5163V19.8163C19.4372 19.8163 20.65 18.693 20.65 17.2497H19.35ZM16.4497 7.19705L12.4497 3.36372L11.5503 4.3023L15.5503 8.13563L16.4497 7.19705ZM11.5503 3.36372L7.55026 7.19705L8.44974 8.13563L12.4497 4.3023L11.5503 3.36372ZM11.35 3.83301L11.35 15.333L12.65 15.333L12.65 3.83301L11.35 3.83301Z" fill="white"/>
</svg>
